<mxfile host="Electron" agent="Mozilla/5.0 (Windows NT 10.0; Win64; x64) AppleWebKit/537.36 (KHTML, like Gecko) draw.io/27.0.2 Chrome/134.0.6998.205 Electron/35.3.0 Safari/537.36" version="27.0.2">
  <diagram name="Страница — 1" id="DP7TmNHtPNwdQ04ViJx4">
    <mxGraphModel dx="1426" dy="2010" grid="1" gridSize="10" guides="1" tooltips="1" connect="1" arrows="1" fold="1" page="1" pageScale="1" pageWidth="827" pageHeight="1169" math="0" shadow="0">
      <root>
        <mxCell id="0" />
        <mxCell id="1" parent="0" />
        <mxCell id="7" value="Формирование налоговой отчетности" style="shape=ellipse;html=1;dashed=0;whiteSpace=wrap;aspect=fixed;perimeter=ellipsePerimeter;" parent="1" vertex="1">
          <mxGeometry x="1040" y="-75" width="60" height="60" as="geometry" />
        </mxCell>
        <mxCell id="8" value="Диаграмма налогов" style="text;html=1;align=center;verticalAlign=middle;resizable=0;points=[];autosize=1;strokeColor=none;fillColor=none;fontStyle=1;fontSize=23;" parent="1" vertex="1">
          <mxGeometry x="575" y="-190" width="230" height="40" as="geometry" />
        </mxCell>
        <mxCell id="17" value="Бухгалтер" style="html=1;dashed=0;whiteSpace=wrap;" parent="1" vertex="1">
          <mxGeometry x="805" y="-70" width="100" height="50" as="geometry" />
        </mxCell>
        <mxCell id="18" value="Данные о налогах" style="endArrow=classic;html=1;" parent="1" source="17" target="7" edge="1">
          <mxGeometry width="50" height="50" relative="1" as="geometry">
            <mxPoint x="1555" y="290" as="sourcePoint" />
            <mxPoint x="1605" y="240" as="targetPoint" />
          </mxGeometry>
        </mxCell>
        <mxCell id="37" value="1С Бухгалтерия" style="html=1;dashed=0;whiteSpace=wrap;shape=partialRectangle;right=0;left=0;" parent="1" vertex="1">
          <mxGeometry x="500" y="-60" width="100" height="30" as="geometry" />
        </mxCell>
        <mxCell id="38" value="Бухгалтерские данные" style="endArrow=classic;html=1;" parent="1" source="37" target="17" edge="1">
          <mxGeometry x="-0.0021" width="50" height="50" relative="1" as="geometry">
            <mxPoint x="710" y="150" as="sourcePoint" />
            <mxPoint x="760" y="100" as="targetPoint" />
            <mxPoint as="offset" />
          </mxGeometry>
        </mxCell>
        <mxCell id="53" value="Файл не защищен от изменения другими сотрудниками" style="shape=document;whiteSpace=wrap;html=1;boundedLbl=1;dashed=0;flipH=1;" parent="1" vertex="1">
          <mxGeometry x="170" y="-10" width="150" height="90" as="geometry" />
        </mxCell>
        <mxCell id="61" value="" style="endArrow=none;dashed=1;html=1;dashPattern=1 3;strokeWidth=2;" parent="1" source="53" target="37" edge="1">
          <mxGeometry width="50" height="50" relative="1" as="geometry">
            <mxPoint x="1010" y="260" as="sourcePoint" />
            <mxPoint x="1060" y="210" as="targetPoint" />
            <Array as="points">
              <mxPoint x="400" y="30" />
              <mxPoint x="400" y="-45" />
            </Array>
          </mxGeometry>
        </mxCell>
        <mxCell id="62" value="Не реализованы меры по предотвращению утечки данных" style="shape=document;whiteSpace=wrap;html=1;boundedLbl=1;" parent="1" vertex="1">
          <mxGeometry x="200" y="-180" width="120" height="80" as="geometry" />
        </mxCell>
        <mxCell id="63" value="" style="endArrow=none;dashed=1;html=1;dashPattern=1 3;strokeWidth=2;" parent="1" source="37" target="62" edge="1">
          <mxGeometry width="50" height="50" relative="1" as="geometry">
            <mxPoint x="1010" y="270" as="sourcePoint" />
            <mxPoint x="1060" y="220" as="targetPoint" />
            <Array as="points">
              <mxPoint x="400" y="-45" />
              <mxPoint x="400" y="-140" />
            </Array>
          </mxGeometry>
        </mxCell>
        <mxCell id="64" value="Отсуствует аудит чтения и изменения файла" style="shape=document;whiteSpace=wrap;html=1;boundedLbl=1;dashed=0;flipH=1;" parent="1" vertex="1">
          <mxGeometry x="190" y="-100" width="130" height="90" as="geometry" />
        </mxCell>
        <mxCell id="65" value="" style="endArrow=none;dashed=1;html=1;dashPattern=1 3;strokeWidth=2;" parent="1" source="37" target="64" edge="1">
          <mxGeometry width="50" height="50" relative="1" as="geometry">
            <mxPoint x="1000" y="170" as="sourcePoint" />
            <mxPoint x="1050" y="120" as="targetPoint" />
            <Array as="points">
              <mxPoint x="400" y="-45" />
              <mxPoint x="400" y="-55" />
            </Array>
          </mxGeometry>
        </mxCell>
        <mxCell id="68" value="ФИО,&lt;div&gt;дата рождения, номер телефона, адрес электронной почты, паспортные данные, данные о зарплатах и счетах&lt;/div&gt;" style="shape=document;whiteSpace=wrap;html=1;boundedLbl=1;dashed=0;flipH=1;" parent="1" vertex="1">
          <mxGeometry x="130" y="80" width="190" height="120" as="geometry" />
        </mxCell>
        <mxCell id="69" value="" style="endArrow=none;dashed=1;html=1;dashPattern=1 3;strokeWidth=2;" parent="1" source="37" target="68" edge="1">
          <mxGeometry width="50" height="50" relative="1" as="geometry">
            <mxPoint x="1000" y="170" as="sourcePoint" />
            <mxPoint x="1050" y="120" as="targetPoint" />
            <Array as="points">
              <mxPoint x="400" y="-45" />
              <mxPoint x="400" y="135" />
            </Array>
          </mxGeometry>
        </mxCell>
        <mxCell id="71" value="Налоговый огран" style="html=1;dashed=0;whiteSpace=wrap;shape=partialRectangle;right=0;left=0;" parent="1" vertex="1">
          <mxGeometry x="1020" y="-170" width="100" height="30" as="geometry" />
        </mxCell>
        <mxCell id="72" value="Налоговая отчетность" style="endArrow=classic;html=1;" parent="1" source="7" target="71" edge="1">
          <mxGeometry width="50" height="50" relative="1" as="geometry">
            <mxPoint x="760" y="-20" as="sourcePoint" />
            <mxPoint x="810" y="-70" as="targetPoint" />
          </mxGeometry>
        </mxCell>
      </root>
    </mxGraphModel>
  </diagram>
</mxfile>
